<svg id="mmd-cls-1" width="100%" xmlns="http://www.w3.org/2000/svg" class="classDiagram" style="max-width: 91.34375px;" viewBox="0 0 91.34375 368" role="graphics-document document" aria-roledescription="classDiagram"><style>#mmd-cls-1{font-family:"trebuchet ms",verdana,arial,sans-serif;font-size:16px;fill:#333;}@keyframes edge-animation-frame{from{stroke-dashoffset:0;}}@keyframes dash{to{stroke-dashoffset:0;}}#mmd-cls-1 .edge-animation-slow{stroke-dasharray:9,5!important;stroke-dashoffset:900;animation:dash 50s linear infinite;stroke-linecap:round;}#mmd-cls-1 .edge-animation-fast{stroke-dasharray:9,5!important;stroke-dashoffset:900;animation:dash 20s linear infinite;stroke-linecap:round;}#mmd-cls-1 .error-icon{fill:#552222;}#mmd-cls-1 .error-text{fill:#552222;stroke:#552222;}#mmd-cls-1 .edge-thickness-normal{stroke-width:1px;}#mmd-cls-1 .edge-thickness-thick{stroke-width:3.5px;}#mmd-cls-1 .edge-pattern-solid{stroke-dasharray:0;}#mmd-cls-1 .edge-thickness-invisible{stroke-width:0;fill:none;}#mmd-cls-1 .edge-pattern-dashed{stroke-dasharray:3;}#mmd-cls-1 .edge-pattern-dotted{stroke-dasharray:2;}#mmd-cls-1 .marker{fill:#333333;stroke:#333333;}#mmd-cls-1 .marker.cross{stroke:#333333;}#mmd-cls-1 svg{font-family:"trebuchet ms",verdana,arial,sans-serif;font-size:16px;}#mmd-cls-1 p{margin:0;}#mmd-cls-1 g.classGroup text{fill:#9370DB;stroke:none;font-family:"trebuchet ms",verdana,arial,sans-serif;font-size:10px;}#mmd-cls-1 g.classGroup text .title{font-weight:bolder;}#mmd-cls-1 .cluster-label text{fill:#333;}#mmd-cls-1 .cluster-label span{color:#333;}#mmd-cls-1 .cluster-label span p{background-color:transparent;}#mmd-cls-1 .cluster rect{fill:#ffffde;stroke:#aaaa33;stroke-width:1px;}#mmd-cls-1 .cluster text{fill:#333;}#mmd-cls-1 .cluster span{color:#333;}#mmd-cls-1 .nodeLabel,#mmd-cls-1 .edgeLabel{color:#131300;}#mmd-cls-1 .noteLabel .nodeLabel,#mmd-cls-1 .noteLabel .edgeLabel{color:black;}#mmd-cls-1 .edgeLabel .label rect{fill:#ECECFF;}#mmd-cls-1 .label text{fill:#131300;}#mmd-cls-1 .labelBkg{background:#ECECFF;}#mmd-cls-1 .edgeLabel .label span{background:#ECECFF;}#mmd-cls-1 .classTitle{font-weight:bolder;}#mmd-cls-1 .node rect,#mmd-cls-1 .node circle,#mmd-cls-1 .node ellipse,#mmd-cls-1 .node polygon,#mmd-cls-1 .node path{fill:#ECECFF;stroke:#9370DB;stroke-width:1;}#mmd-cls-1 .divider{stroke:#9370DB;stroke-width:1;}#mmd-cls-1 g.clickable{cursor:pointer;}#mmd-cls-1 g.classGroup rect{fill:#ECECFF;stroke:#9370DB;}#mmd-cls-1 g.classGroup line{stroke:#9370DB;stroke-width:1;}#mmd-cls-1 .classLabel .box{stroke:none;stroke-width:0;fill:#ECECFF;opacity:0.5;}#mmd-cls-1 .classLabel .label{fill:#9370DB;font-size:10px;}#mmd-cls-1 .relation{stroke:#333333;stroke-width:1;fill:none;}#mmd-cls-1 .dashed-line{stroke-dasharray:3;}#mmd-cls-1 .dotted-line{stroke-dasharray:1 2;}#mmd-cls-1 [id$="-compositionStart"],#mmd-cls-1 .composition{fill:#333333!important;stroke:#333333!important;stroke-width:1;}#mmd-cls-1 [id$="-compositionEnd"],#mmd-cls-1 .composition{fill:#333333!important;stroke:#333333!important;stroke-width:1;}#mmd-cls-1 [id$="-dependencyStart"],#mmd-cls-1 .dependency{fill:#333333!important;stroke:#333333!important;stroke-width:1;}#mmd-cls-1 [id$="-dependencyEnd"],#mmd-cls-1 .dependency{fill:#333333!important;stroke:#333333!important;stroke-width:1;}#mmd-cls-1 [id$="-extensionStart"],#mmd-cls-1 .extension{fill:transparent!important;stroke:#333333!important;stroke-width:1;}#mmd-cls-1 [id$="-extensionEnd"],#mmd-cls-1 .extension{fill:transparent!important;stroke:#333333!important;stroke-width:1;}#mmd-cls-1 [id$="-aggregationStart"],#mmd-cls-1 .aggregation{fill:transparent!important;stroke:#333333!important;stroke-width:1;}#mmd-cls-1 [id$="-aggregationEnd"],#mmd-cls-1 .aggregation{fill:transparent!important;stroke:#333333!important;stroke-width:1;}#mmd-cls-1 [id$="-lollipopStart"],#mmd-cls-1 .lollipop{fill:#ECECFF!important;stroke:#333333!important;stroke-width:1;}#mmd-cls-1 [id$="-lollipopEnd"],#mmd-cls-1 .lollipop{fill:#ECECFF!important;stroke:#333333!important;stroke-width:1;}#mmd-cls-1 .edgeTerminals{font-size:11px;line-height:initial;}#mmd-cls-1 .classTitleText{text-anchor:middle;font-size:18px;fill:#333;}#mmd-cls-1 .edgeLabel[data-look="neo"]{background-color:rgba(232,232,232, 0.8);text-align:center;}#mmd-cls-1 .edgeLabel[data-look="neo"] p{background-color:rgba(232,232,232, 0.8);}#mmd-cls-1 .edgeLabel[data-look="neo"] rect{opacity:0.5;background-color:rgba(232,232,232, 0.8);fill:rgba(232,232,232, 0.8);}#mmd-cls-1 .label-icon{display:inline-block;height:1em;overflow:visible;vertical-align:-0.125em;}#mmd-cls-1 .node .label-icon path{fill:currentColor;stroke:revert;stroke-width:revert;}#mmd-cls-1 .node .neo-node{stroke:#9370DB;}#mmd-cls-1 [data-look="neo"].node rect,#mmd-cls-1 [data-look="neo"].cluster rect,#mmd-cls-1 [data-look="neo"].node polygon{stroke:#9370DB;filter:drop-shadow(1px 2px 2px rgba(185, 185, 185, 1));}#mmd-cls-1 [data-look="neo"].swimlane.cluster rect{filter:none;}#mmd-cls-1 [data-look="neo"].node path{stroke:#9370DB;stroke-width:1px;}#mmd-cls-1 [data-look="neo"].node .outer-path{filter:drop-shadow(1px 2px 2px rgba(185, 185, 185, 1));}#mmd-cls-1 [data-look="neo"].node .neo-line path{stroke:#9370DB;filter:none;}#mmd-cls-1 [data-look="neo"].node circle{stroke:#9370DB;filter:drop-shadow(1px 2px 2px rgba(185, 185, 185, 1));}#mmd-cls-1 [data-look="neo"].node circle .state-start{fill:#000000;}#mmd-cls-1 [data-look="neo"].icon-shape .icon{fill:#9370DB;filter:drop-shadow(1px 2px 2px rgba(185, 185, 185, 1));}#mmd-cls-1 [data-look="neo"].icon-shape .icon-neo path{stroke:#9370DB;filter:drop-shadow(1px 2px 2px rgba(185, 185, 185, 1));}#mmd-cls-1 :root{--mermaid-font-family:"trebuchet ms",verdana,arial,sans-serif;}</style><g><defs><marker id="mmd-cls-1_classDiagram-aggregationStart" class="marker aggregation classDiagram" refX="18" refY="7" markerWidth="190" markerHeight="240" orient="auto" markerUnits="userSpaceOnUse"><path d="M 18,7 L9,13 L1,7 L9,1 Z"></path></marker></defs><defs><marker id="mmd-cls-1_classDiagram-aggregationEnd" class="marker aggregation classDiagram" refX="1" refY="7" markerWidth="20" markerHeight="28" orient="auto" markerUnits="userSpaceOnUse"><path d="M 18,7 L9,13 L1,7 L9,1 Z"></path></marker></defs><defs><marker id="mmd-cls-1_classDiagram-aggregationStart-margin" class="marker aggregation classDiagram" refX="15" refY="7" markerWidth="190" markerHeight="240" orient="auto" markerUnits="userSpaceOnUse"><path d="M 18,7 L9,13 L1,7 L9,1 Z" style="stroke-width: 2;"></path></marker></defs><defs><marker id="mmd-cls-1_classDiagram-aggregationEnd-margin" class="marker aggregation classDiagram" refX="1" refY="7" markerWidth="20" markerHeight="28" orient="auto" markerUnits="userSpaceOnUse"><path d="M 18,7 L9,13 L1,7 L9,1 Z" style="stroke-width: 2;"></path></marker></defs><defs><marker id="mmd-cls-1_classDiagram-extensionStart" class="marker extension classDiagram" refX="18" refY="7" markerWidth="20" markerHeight="28" orient="auto" markerUnits="userSpaceOnUse"><path d="M 1,7 L18,13 V 1 Z"></path></marker></defs><defs><marker id="mmd-cls-1_classDiagram-extensionEnd" class="marker extension classDiagram" refX="1" refY="7" markerWidth="20" markerHeight="28" orient="auto" markerUnits="userSpaceOnUse"><path d="M 1,1 V 13 L18,7 Z"></path></marker></defs><marker id="mmd-cls-1_classDiagram-extensionStart-margin" class="marker extension classDiagram" refX="18" refY="7" markerWidth="20" markerHeight="28" orient="auto" markerUnits="userSpaceOnUse" viewBox="0 0 20 14"><polygon points="10,7 18,13 18,1" style="stroke-width: 2; stroke-dasharray: 0;"></polygon></marker><defs><marker id="mmd-cls-1_classDiagram-extensionEnd-margin" class="marker extension classDiagram" refX="9" refY="7" markerWidth="20" markerHeight="28" orient="auto" markerUnits="userSpaceOnUse" viewBox="0 0 20 14"><polygon points="10,1 10,13 18,7" style="stroke-width: 2; stroke-dasharray: 0;"></polygon></marker></defs><defs><marker id="mmd-cls-1_classDiagram-compositionStart" class="marker composition classDiagram" refX="18" refY="7" markerWidth="190" markerHeight="240" orient="auto" markerUnits="userSpaceOnUse"><path d="M 18,7 L9,13 L1,7 L9,1 Z"></path></marker></defs><defs><marker id="mmd-cls-1_classDiagram-compositionEnd" class="marker composition classDiagram" refX="1" refY="7" markerWidth="20" markerHeight="28" orient="auto" markerUnits="userSpaceOnUse"><path d="M 18,7 L9,13 L1,7 L9,1 Z"></path></marker></defs><defs><marker id="mmd-cls-1_classDiagram-compositionStart-margin" class="marker composition classDiagram" refX="15" refY="7" markerWidth="190" markerHeight="240" orient="auto" markerUnits="userSpaceOnUse"><path viewBox="0 0 15 15" d="M 18,7 L9,13 L1,7 L9,1 Z" style="stroke-width: 0;"></path></marker></defs><defs><marker id="mmd-cls-1_classDiagram-compositionEnd-margin" class="marker composition classDiagram" refX="3.5" refY="7" markerWidth="20" markerHeight="28" orient="auto" markerUnits="userSpaceOnUse"><path d="M 18,7 L9,13 L1,7 L9,1 Z" style="stroke-width: 0;"></path></marker></defs><defs><marker id="mmd-cls-1_classDiagram-dependencyStart" class="marker dependency classDiagram" refX="6" refY="7" markerWidth="190" markerHeight="240" orient="auto" markerUnits="userSpaceOnUse"><path d="M 5,7 L9,13 L1,7 L9,1 Z"></path></marker></defs><defs><marker id="mmd-cls-1_classDiagram-dependencyEnd" class="marker dependency classDiagram" refX="13" refY="7" markerWidth="20" markerHeight="28" orient="auto" markerUnits="userSpaceOnUse"><path d="M 18,7 L9,13 L14,7 L9,1 Z"></path></marker></defs><defs><marker id="mmd-cls-1_classDiagram-dependencyStart-margin" class="marker dependency classDiagram" refX="4" refY="7" markerWidth="190" markerHeight="240" orient="auto" markerUnits="userSpaceOnUse"><path d="M 5,7 L9,13 L1,7 L9,1 Z" style="stroke-width: 0;"></path></marker></defs><defs><marker id="mmd-cls-1_classDiagram-dependencyEnd-margin" class="marker dependency classDiagram" refX="16" refY="7" markerWidth="20" markerHeight="28" orient="auto" markerUnits="userSpaceOnUse"><path d="M 18,7 L9,13 L14,7 L9,1 Z" style="stroke-width: 0;"></path></marker></defs><defs><marker id="mmd-cls-1_classDiagram-lollipopStart" class="marker lollipop classDiagram" refX="13" refY="7" markerWidth="190" markerHeight="240" orient="auto" markerUnits="userSpaceOnUse"><circle fill="transparent" cx="7" cy="7" r="6"></circle></marker></defs><defs><marker id="mmd-cls-1_classDiagram-lollipopEnd" class="marker lollipop classDiagram" refX="1" refY="7" markerWidth="190" markerHeight="240" orient="auto" markerUnits="userSpaceOnUse"><circle fill="transparent" cx="7" cy="7" r="6"></circle></marker></defs><defs><marker id="mmd-cls-1_classDiagram-lollipopStart-margin" class="marker lollipop classDiagram" refX="13" refY="7" markerWidth="190" markerHeight="240" orient="auto" markerUnits="userSpaceOnUse"><circle fill="transparent" cx="7" cy="7" r="6" stroke-width="2"></circle></marker></defs><defs><marker id="mmd-cls-1_classDiagram-lollipopEnd-margin" class="marker lollipop classDiagram" refX="1" refY="7" markerWidth="190" markerHeight="240" orient="auto" markerUnits="userSpaceOnUse"><circle fill="transparent" cx="7" cy="7" r="6" stroke-width="2"></circle></marker></defs><g class="root"><g class="clusters"></g><g class="edgePaths"><path d="M45.672,109.25L45.672,110.542C45.672,111.833,45.672,114.417,45.672,119.875C45.672,125.333,45.672,133.667,45.672,137.833L45.672,142" id="mmd-cls-1-id_Animal_Duck_1" class="edge-thickness-normal edge-pattern-solid relation" style=";;;" data-edge="true" data-et="edge" data-id="id_Animal_Duck_1" data-points="W3sieCI6NDUuNjcxODc1LCJ5Ijo5Mn0seyJ4Ijo0NS42NzE4NzUsInkiOjExN30seyJ4Ijo0NS42NzE4NzUsInkiOjE0Mn1d" data-look="classic" marker-start="url(#mmd-cls-1_classDiagram-extensionStart)"></path><path d="M45.672,226L45.672,230.167C45.672,234.333,45.672,242.667,45.672,250C45.672,257.333,45.672,263.667,45.672,266.833L45.672,270" id="mmd-cls-1-id_Duck_Egg_2" class="edge-thickness-normal edge-pattern-solid relation" style=";;;" data-edge="true" data-et="edge" data-id="id_Duck_Egg_2" data-points="W3sieCI6NDUuNjcxODc1LCJ5IjoyMjZ9LHsieCI6NDUuNjcxODc1LCJ5IjoyNTF9LHsieCI6NDUuNjcxODc1LCJ5IjoyNzZ9XQ==" data-look="classic" marker-end="url(#mmd-cls-1_classDiagram-dependencyEnd)"></path></g><g class="edgeLabels"><g class="edgeLabel"><g class="label" data-id="id_Animal_Duck_1" transform="translate(0, 0)"><foreignObject width="0" height="0"><div xmlns="http://www.w3.org/1999/xhtml" class="labelBkg" style="display: table-cell; white-space: nowrap; line-height: 1.5; max-width: 200px; text-align: center;"><span class="edgeLabel"></span></div></foreignObject></g></g><g class="edgeLabel"><g class="label" data-id="id_Duck_Egg_2" transform="translate(0, 0)"><foreignObject width="0" height="0"><div xmlns="http://www.w3.org/1999/xhtml" class="labelBkg" style="display: table-cell; white-space: nowrap; line-height: 1.5; max-width: 200px; text-align: center;"><span class="edgeLabel"></span></div></foreignObject></g></g></g><g class="nodes"><g class="node default" id="mmd-cls-1-classId-Animal-0" data-look="classic" transform="translate(45.671875, 50)"><g class="basic label-container outer-path"><path d="M-37.671875 -42 L37.671875 -42 L37.671875 42 L-37.671875 42" stroke="none" stroke-width="0" fill="#ECECFF" style=""></path><path d="M-37.671875 -42 C-22.139206486068712 -42, -6.606537972137424 -42, 37.671875 -42 M-37.671875 -42 C-11.225916875913601 -42, 15.220041248172798 -42, 37.671875 -42 M37.671875 -42 C37.671875 -23.447345777795398, 37.671875 -4.894691555590796, 37.671875 42 M37.671875 -42 C37.671875 -12.375154196627495, 37.671875 17.24969160674501, 37.671875 42 M37.671875 42 C9.854596077074696 42, -17.96268284585061 42, -37.671875 42 M37.671875 42 C8.224639139558747 42, -21.222596720882507 42, -37.671875 42 M-37.671875 42 C-37.671875 21.071071569273116, -37.671875 0.14214313854623128, -37.671875 -42 M-37.671875 42 C-37.671875 14.49019253368261, -37.671875 -13.01961493263478, -37.671875 -42" stroke="#9370DB" stroke-width="1.3" fill="none" stroke-dasharray="0 0" style=""></path></g><g class="annotation-group text" transform="translate(0, -18)"></g><g class="label-group text" transform="translate(-25.671875, -18)"><g class="label" style="font-weight: bolder" transform="translate(0,-12)"><foreignObject width="51.34375" height="24"><div xmlns="http://www.w3.org/1999/xhtml" style="display: table-cell; white-space: nowrap; line-height: 1.5; max-width: 100px; text-align: center;"><span class="nodeLabel markdown-node-label" style=""><p>Animal</p></span></div></foreignObject></g></g><g class="members-group text" transform="translate(-25.671875, 30)"></g><g class="methods-group text" transform="translate(-25.671875, 60)"></g><g class="divider" style=""><path d="M-37.671875 6 C-8.392293889399774 6.000388613270651, 20.887287221200452 6.0007772265413015, 37.671875 6.001 M-37.671875 6 C-18.470353597659393 6.000254852212723, 0.7311678046812133 6.000509704425446, 37.671875 6.001" stroke="#9370DB" stroke-width="1.3" fill="none" stroke-dasharray="0 0" style=""></path></g><g class="divider" style=""><path d="M-37.671875 24 C-8.920889047779664 24.000381597490865, 19.830096904440673 24.000763194981726, 37.671875 24.001 M-37.671875 24 C-13.792060137037964 24.00031694486753, 10.087754725924071 24.00063388973506, 37.671875 24.001" stroke="#9370DB" stroke-width="1.3" fill="none" stroke-dasharray="0 0" style=""></path></g></g><g class="node default" id="mmd-cls-1-classId-Duck-1" data-look="classic" transform="translate(45.671875, 184)"><g class="basic label-container outer-path"><path d="M-30.34375 -42 L30.34375 -42 L30.34375 42 L-30.34375 42" stroke="none" stroke-width="0" fill="#ECECFF" style=""></path><path d="M-30.34375 -42 C-17.19789186662851 -42, -4.052033733257019 -42, 30.34375 -42 M-30.34375 -42 C-16.17502691321041 -42, -2.0063038264208153 -42, 30.34375 -42 M30.34375 -42 C30.34375 -21.672869911608597, 30.34375 -1.345739823217194, 30.34375 42 M30.34375 -42 C30.34375 -16.864843125645738, 30.34375 8.270313748708524, 30.34375 42 M30.34375 42 C6.546952065318347 42, -17.249845869363305 42, -30.34375 42 M30.34375 42 C7.974950697148024 42, -14.393848605703951 42, -30.34375 42 M-30.34375 42 C-30.34375 24.56211089523761, -30.34375 7.124221790475218, -30.34375 -42 M-30.34375 42 C-30.34375 25.194842087682826, -30.34375 8.389684175365652, -30.34375 -42" stroke="#9370DB" stroke-width="1.3" fill="none" stroke-dasharray="0 0" style=""></path></g><g class="annotation-group text" transform="translate(0, -18)"></g><g class="label-group text" transform="translate(-18.34375, -18)"><g class="label" style="font-weight: bolder" transform="translate(0,-12)"><foreignObject width="36.6875" height="24"><div xmlns="http://www.w3.org/1999/xhtml" style="display: table-cell; white-space: nowrap; line-height: 1.5; max-width: 87px; text-align: center;"><span class="nodeLabel markdown-node-label" style=""><p>Duck</p></span></div></foreignObject></g></g><g class="members-group text" transform="translate(-18.34375, 30)"></g><g class="methods-group text" transform="translate(-18.34375, 60)"></g><g class="divider" style=""><path d="M-30.34375 6 C-6.104425062819011 6.000399412151385, 18.134899874361977 6.000798824302771, 30.34375 6.001 M-30.34375 6 C-6.074278797241881 6.000399908897265, 18.195192405516238 6.00079981779453, 30.34375 6.001" stroke="#9370DB" stroke-width="1.3" fill="none" stroke-dasharray="0 0" style=""></path></g><g class="divider" style=""><path d="M-30.34375 24 C-12.42913093541953 24.000295194546894, 5.485488129160942 24.000590389093787, 30.34375 24.001 M-30.34375 24 C-10.907651986301484 24.000320265260783, 8.528446027397031 24.000640530521565, 30.34375 24.001" stroke="#9370DB" stroke-width="1.3" fill="none" stroke-dasharray="0 0" style=""></path></g></g><g class="node default" id="mmd-cls-1-classId-Egg-2" data-look="classic" transform="translate(45.671875, 318)"><g class="basic label-container outer-path"><path d="M-24.5859375 -42 L24.5859375 -42 L24.5859375 42 L-24.5859375 42" stroke="none" stroke-width="0" fill="#ECECFF" style=""></path><path d="M-24.5859375 -42 C-13.245396248341482 -42, -1.904854996682964 -42, 24.5859375 -42 M-24.5859375 -42 C-6.393926278559942 -42, 11.798084942880116 -42, 24.5859375 -42 M24.5859375 -42 C24.5859375 -24.307338068507317, 24.5859375 -6.614676137014634, 24.5859375 42 M24.5859375 -42 C24.5859375 -24.436739553284742, 24.5859375 -6.873479106569484, 24.5859375 42 M24.5859375 42 C10.910489201464216 42, -2.764959097071568 42, -24.5859375 42 M24.5859375 42 C6.849917367349558 42, -10.886102765300883 42, -24.5859375 42 M-24.5859375 42 C-24.5859375 18.80549240868574, -24.5859375 -4.389015182628519, -24.5859375 -42 M-24.5859375 42 C-24.5859375 21.73324505305661, -24.5859375 1.4664901061132198, -24.5859375 -42" stroke="#9370DB" stroke-width="1.3" fill="none" stroke-dasharray="0 0" style=""></path></g><g class="annotation-group text" transform="translate(0, -18)"></g><g class="label-group text" transform="translate(-12.5859375, -18)"><g class="label" style="font-weight: bolder" transform="translate(0,-12)"><foreignObject width="25.171875" height="24"><div xmlns="http://www.w3.org/1999/xhtml" style="display: table-cell; white-space: nowrap; line-height: 1.5; max-width: 77px; text-align: center;"><span class="nodeLabel markdown-node-label" style=""><p>Egg</p></span></div></foreignObject></g></g><g class="members-group text" transform="translate(-12.5859375, 30)"></g><g class="methods-group text" transform="translate(-12.5859375, 60)"></g><g class="divider" style=""><path d="M-24.5859375 6 C-13.456784092296706 6.000226331686715, -2.3276306845934123 6.000452663373431, 24.5859375 6.001 M-24.5859375 6 C-10.527913949123441 6.000285895617177, 3.530109601753118 6.000571791234354, 24.5859375 6.001" stroke="#9370DB" stroke-width="1.3" fill="none" stroke-dasharray="0 0" style=""></path></g><g class="divider" style=""><path d="M-24.5859375 24 C-7.558058647068666 24.000346293055795, 9.469820205862668 24.00069258611159, 24.5859375 24.001 M-24.5859375 24 C-9.793617115144052 24.000300828886125, 4.998703269711896 24.000601657772247, 24.5859375 24.001" stroke="#9370DB" stroke-width="1.3" fill="none" stroke-dasharray="0 0" style=""></path></g></g></g></g></g><defs><filter id="mmd-cls-1-drop-shadow" height="130%" width="130%"><feDropShadow dx="4" dy="4" stdDeviation="0" flood-opacity="0.06" flood-color="#000000"></feDropShadow></filter></defs><defs><filter id="mmd-cls-1-drop-shadow-small" height="150%" width="150%"><feDropShadow dx="2" dy="2" stdDeviation="0" flood-opacity="0.06" flood-color="#000000"></feDropShadow></filter></defs></svg>
